<svg xmlns="http://www.w3.org/2000/svg" viewBox="0 0 3323.04199 980.05078">
  <defs>
    <style>
      .cls-1 {
        fill: #bc0000;
      }

      .cls-2 {
        fill: #e39696;
      }

      .cls-3 {
        fill: #e7a2a2;
      }

      .cls-4 {
        fill: #eebcbc;
      }

      .cls-5 {
        fill: #e58585;
      }

      .cls-6 {
        fill: #f9cece;
      }

      .cls-7 {
        fill: #d35555;
      }

      .cls-8 {
        fill: #c52525;
      }

      .cls-9 {
        fill: #d35454;
      }

      .cls-10 {
        fill: #eea0a0;
      }

      .cls-11 {
        fill: #f4b9b9;
      }

      .cls-12 {
        fill: #e07676;
      }

      .cls-13 {
        fill: #fcdddd;
      }

      .cls-14 {
        fill: #d66262;
      }

      .cls-15 {
        fill: #f5d8d8;
      }

      .cls-16 {
        fill: #f1d2d2;
      }

      .cls-17 {
        fill: #cc3838;
      }

      .cls-18 {
        fill: #d25c5c;
      }

      .cls-19 {
        fill: #e3b1b1;
      }

      .cls-20 {
        fill: #e4b9b9;
      }

      .cls-21 {
        fill: #e6c3c3;
      }
    </style>
  </defs>
  <g id="Capa_1" data-name="Capa 1">
    <g>
      <path d="M968.36279,354.2998a138.85219,138.85219,0,0,1-47.3999-8.0996,168.73685,168.73685,0,0,1-43.5-23.7002l26.3999-38.1001Q925.75781,299.7002,941.0625,306a80.53034,80.53034,0,0,0,30.90039,6.2998,56.56589,56.56589,0,0,0,19.04981-2.8496q7.9453-2.84766,12.2998-7.8003a16.96335,16.96335,0,0,0,4.3501-11.5498q0-9.29517-6.1499-14.25-6.15236-4.95045-21.4502-7.6499l-44.69971-7.8003q-24.90453-4.19751-38.25-19.1997Q883.76,226.20239,883.7627,204q0-20.39795,9.8999-35.25,9.90015-14.84985,28.6499-22.9502,18.74561-8.09985,44.8501-8.0996a152.61785,152.61785,0,0,1,47.1001,7.3496q22.79516,7.355,39,20.25l-26.1001,37.5a119.27993,119.27993,0,0,0-30.6001-17.3999,91.27159,91.27159,0,0,0-32.09961-5.6997A52.4431,52.4431,0,0,0,947.0625,182.25q-7.1997,2.55249-10.94971,7.0498a15.491,15.491,0,0,0-3.75,10.2002q0,8.09985,5.54981,12.4502,5.54809,4.352,18.1499,6.75l42,7.1997q29.39794,4.80249,44.7002,20.1001,15.30029,15.3003,15.2998,39.2998,0,20.40528-10.94971,36-10.95483,15.60279-31.05029,24.3003Q995.96045,354.29761,968.36279,354.2998Z" transform="translate(-111 -54)"/>
      <path d="M1065.86426,351l81.8999-210h58.80029l80.69922,210h-55.79883l-17.40039-50.1001h-76.80029L1119.564,351Zm85.5-90h48.89941l-24.29931-69.6001Z" transform="translate(-111 -54)"/>
      <path d="M1311.26074,351V141h64.79981l50.70019,100.7998L1477.16016,141H1541.96V351h-48.59961V208.5L1426.16016,336l-67.5-128.7002V351Z" transform="translate(-111 -54)"/>
    </g>
    <g>
      <path d="M884.08984,688.11914V478.11865h143.39991v20.3999H907.18945v75h82.2002v20.1001h-82.2002v94.50049Z" transform="translate(-111 -54)"/>
      <path d="M1101.88623,691.11914a69.49054,69.49054,0,0,1-36.8999-10.05078,72.77573,72.77573,0,0,1-26.1001-27.29981q-9.605-17.24853-9.6001-38.85058,0-21.59913,9.14991-38.69922a70.8999,70.8999,0,0,1,24.75-27,63.58826,63.58826,0,0,1,34.80029-9.8999q19.49708,0,34.65039,9.75a69.6321,69.6321,0,0,1,24,26.3999q8.84472,16.65015,8.84961,37.65039v6.59961h-114.8999a61.23193,61.23193,0,0,0,8.25,26.84961A51.74747,51.74747,0,0,0,1077.436,665.168a49.32568,49.32568,0,0,0,25.35009,6.75,61.55394,61.55394,0,0,0,22.04981-4.04883,55.70592,55.70592,0,0,0,18.15039-10.95117l13.80078,14.70117a92.32479,92.32479,0,0,1-26.10156,14.69922A85.39966,85.39966,0,0,1,1101.88623,691.11914Zm-50.70019-87h92.70068a55.89672,55.89672,0,0,0-7.95117-23.55029,49.74659,49.74659,0,0,0-16.19922-16.3501,40.69864,40.69864,0,0,0-21.75-6,42.23988,42.23988,0,0,0-21.8999,5.8501,47.7673,47.7673,0,0,0-16.3501,16.1997A62.71446,62.71446,0,0,0,1051.186,604.11914Z" transform="translate(-111 -54)"/>
      <path d="M1263.88379,690.21875a60.91758,60.91758,0,0,1-34.2002-10.05078,72.05907,72.05907,0,0,1-24.2998-27q-9-16.94532-9-37.94922,0-21.29883,9.14941-38.25a72.42515,72.42515,0,0,1,24.75-27,62.90241,62.90241,0,0,1,34.79981-10.05029,60.89479,60.89479,0,0,1,25.20019,5.25,59.21651,59.21651,0,0,1,20.40039,15.15039v-88.8003l21.89942-4.5V688.11914h-21.89942v-19.5A55.8289,55.8289,0,0,1,1290.2832,684.668,62.13868,62.13868,0,0,1,1263.88379,690.21875Zm5.39941-19.2002a54.74671,54.74671,0,0,0,23.7002-5.10058,46.21954,46.21954,0,0,0,17.70019-14.39942V578.91846a49.88578,49.88578,0,0,0-18.15039-14.54981,53.15726,53.15726,0,0,0-23.25-5.25,48.57455,48.57455,0,0,0-26.25,7.2002,51.42969,51.42969,0,0,0-18.2998,19.7998q-6.75,12.59985-6.75,28.79932a60.262,60.262,0,0,0,6.75,28.65039,52.26037,52.26037,0,0,0,18.2998,20.09961A47.79787,47.79787,0,0,0,1269.2832,671.01855Z" transform="translate(-111 -54)"/>
      <path d="M1442.37891,690.51855q-20.40381,0-36.59961-9.89941a70.46308,70.46308,0,0,1-25.5-27q-9.30322-17.10059-9.29981-38.70117,0-21.59913,9.29981-38.69922a70.45618,70.45618,0,0,1,25.5-27q16.1997-9.90015,36.59961-9.8999a67.47274,67.47274,0,0,1,36.15039,9.8999,70.89487,70.89487,0,0,1,25.34961,27q9.29589,17.09985,9.2998,38.69922,0,21.60059-9.2998,38.70117a70.90188,70.90188,0,0,1-25.34961,27A67.4767,67.4767,0,0,1,1442.37891,690.51855Zm-.29981-19.20019a45.11032,45.11032,0,0,0,25.5-7.34961,51.12091,51.12091,0,0,0,17.54981-20.25,67.8558,67.8558,0,0,0,0-57.75,51.41335,51.41335,0,0,0-17.54981-20.1001,47.90914,47.90914,0,0,0-51,0,51.336,51.336,0,0,0-17.5498,20.1001q-6.45556,12.75439-6.4502,28.94922a63.43367,63.43367,0,0,0,6.4502,28.80078,51.04491,51.04491,0,0,0,17.5498,20.25A45.09913,45.09913,0,0,0,1442.0791,671.31836Z" transform="translate(-111 -54)"/>
      <path d="M1551.5752,688.11914V541.71875h21.90039v30q5.6953-15.3003,16.34961-23.8501a37.94738,37.94738,0,0,1,24.45019-8.5498,53.56571,53.56571,0,0,1,7.2002.4497,32.18294,32.18294,0,0,1,6.59961,1.64991v19.80029a57.70946,57.70946,0,0,0-7.6504-1.9502,42.39124,42.39124,0,0,0-7.64941-.75,37.30414,37.30414,0,0,0-23.5498,7.8003q-10.0547,7.80468-15.75,21.8999v99.90039Z" transform="translate(-111 -54)"/>
      <path d="M1696.47559,690.81836q-15.60206,0-27.59961-5.69922a45.45015,45.45015,0,0,1-18.75-15.75,40.706,40.706,0,0,1-6.75-23.25q0-13.19825,6.89941-22.95117a45.05193,45.05193,0,0,1,19.2002-15.14942q12.29736-5.40087,28.7998-5.39941a101.93747,101.93747,0,0,1,23.85059,2.69922,69.87038,69.87038,0,0,1,20.84961,8.70019V593.91846q0-18-9.59961-27.14991-9.605-9.14721-28.2002-9.1499a76.77753,76.77753,0,0,0-20.84961,3,130.10593,130.10593,0,0,0-23.55078,9.6001l-8.09961-16.80029q29.39794-14.09766,55.2002-14.09961,27.29443,0,42,13.34961,14.6953,13.35277,14.70019,38.25v97.20068h-21.60058V671.01855a64.73864,64.73864,0,0,1-21.29981,14.85059A64.02281,64.02281,0,0,1,1696.47559,690.81836ZM1664.376,645.51855a24.892,24.892,0,0,0,10.0498,20.7002q10.04736,7.8047,26.54981,7.7998a59.6398,59.6398,0,0,0,22.65039-4.20019,63.0822,63.0822,0,0,0,19.34961-12.59961v-28.2002a75.80245,75.80245,0,0,0-19.2002-7.95019,89.2263,89.2263,0,0,0-22.19922-2.54981q-16.80468,0-27,7.35059Q1664.37353,633.22265,1664.376,645.51855Z" transform="translate(-111 -54)"/>
      <path d="M1914.26758,688.11914,1868.9668,478.11865h23.40039l35.70019,173.69971,51.89942-173.69971h22.5l51.90039,173.1001,36-173.1001h22.5l-45.29981,210.00049H2044.167l-53.09961-178.20068L1937.667,688.11914Z" transform="translate(-111 -54)"/>
      <path d="M2200.76562,690.51855q-20.4038,0-36.5996-9.89941a70.463,70.463,0,0,1-25.5-27q-9.30323-17.10059-9.29981-38.70117,0-21.59913,9.29981-38.69922a70.45611,70.45611,0,0,1,25.5-27q16.1997-9.90015,36.5996-9.8999a67.47275,67.47275,0,0,1,36.1504,9.8999,70.89485,70.89485,0,0,1,25.3496,27q9.2959,17.09985,9.29981,38.69922,0,21.60059-9.29981,38.70117a70.90186,70.90186,0,0,1-25.3496,27A67.47671,67.47671,0,0,1,2200.76562,690.51855Zm-.2998-19.20019a45.11032,45.11032,0,0,0,25.5-7.34961,51.12089,51.12089,0,0,0,17.5498-20.25,67.8557,67.8557,0,0,0,0-57.75,51.41332,51.41332,0,0,0-17.5498-20.1001,47.90914,47.90914,0,0,0-51,0,51.336,51.336,0,0,0-17.5498,20.1001q-6.45558,12.75439-6.4502,28.94922a63.43354,63.43354,0,0,0,6.4502,28.80078,51.04491,51.04491,0,0,0,17.5498,20.25A45.09911,45.09911,0,0,0,2200.46582,671.31836Z" transform="translate(-111 -54)"/>
      <path d="M2309.96191,688.11914V541.71875h21.90039v30q5.69532-15.3003,16.34961-23.8501a37.94741,37.94741,0,0,1,24.4502-8.5498,53.56544,53.56544,0,0,1,7.20019.4497,32.18262,32.18262,0,0,1,6.59961,1.64991v19.80029a57.70891,57.70891,0,0,0-7.65039-1.9502,42.39133,42.39133,0,0,0-7.64941-.75,37.30419,37.30419,0,0,0-23.54981,7.8003q-10.05468,7.80468-15.75,21.8999v99.90039Z" transform="translate(-111 -54)"/>
      <path d="M2415.55859,688.11914V471.51855l21.90039-4.5V607.418l69.59961-65.69922H2533.459l-74.40039,69.59961,77.7002,76.80078H2507.959l-70.5-69.90039v69.90039Z" transform="translate(-111 -54)"/>
      <path d="M2604.55957,691.11914a96.9788,96.9788,0,0,1-33.2998-5.55078,72.12488,72.12488,0,0,1-26.09961-16.04981l11.69922-14.39941q13.19823,9.60351,24.30078,13.94922A61.9118,61.9118,0,0,0,2603.96,673.418q15.89794,0,26.39942-7.5,10.49853-7.49413,10.5-19.19922,0-9-6.14942-14.09961-6.15234-5.09766-20.25-7.80078l-24-4.19922q-21.30468-3.89649-31.35058-13.20117-10.05469-9.29444-10.04981-25.19922a37.63308,37.63308,0,0,1,6.75-22.2002,45.84,45.84,0,0,1,18.75-15.1499,64.34418,64.34418,0,0,1,27.29981-5.5498,92.46788,92.46788,0,0,1,28.5,4.34961,104.063,104.063,0,0,1,27.30078,13.95019l-10.80078,15.29981a86.02911,86.02911,0,0,0-22.79981-11.84961,73.54825,73.54825,0,0,0-23.09961-3.75q-14.40087,0-23.10058,6.2998a20.008,20.008,0,0,0-8.69922,17.1001q0,9,5.5498,13.7998,5.54736,4.80249,19.64942,7.2002l24.60058,4.5q22.19677,3.90234,32.39942,13.5,10.19531,9.60351,10.20019,25.7998a38.679,38.679,0,0,1-7.5,23.25,51.30014,51.30014,0,0,1-20.39941,16.35059A68.24357,68.24357,0,0,1,2604.55957,691.11914Z" transform="translate(-111 -54)"/>
      <path d="M2747.66016,691.11914q-18.89941,0-28.64942-9.15039-9.75293-9.14794-9.75-26.55078V559.71875H2678.96v-18h30.30078v-40.2002l21.89942-5.10009v45.30029h42v18h-42v90q0,11.6997,4.95019,16.7998,4.94971,5.105,16.34961,5.10059a52.34472,52.34472,0,0,0,10.2002-.90039,79.80355,79.80355,0,0,0,10.5-3v19.5a64.69643,64.69643,0,0,1-12.59961,3A95.518,95.518,0,0,1,2747.66016,691.11914Z" transform="translate(-111 -54)"/>
      <path d="M2850.55762,690.81836q-15.60205,0-27.59961-5.69922a45.45015,45.45015,0,0,1-18.75-15.75,40.706,40.706,0,0,1-6.75-23.25q0-13.19825,6.89941-22.95117a45.05193,45.05193,0,0,1,19.2002-15.14942q12.29736-5.40087,28.7998-5.39941a101.93747,101.93747,0,0,1,23.85059,2.69922,69.87038,69.87038,0,0,1,20.84961,8.70019V593.91846q0-18-9.59961-27.14991-9.605-9.14721-28.2002-9.1499a76.77753,76.77753,0,0,0-20.84961,3,130.10593,130.10593,0,0,0-23.55078,9.6001l-8.09961-16.80029q29.398-14.09766,55.2002-14.09961,27.29444,0,42,13.34961,14.69531,13.35277,14.70019,38.25v97.20068h-21.60058V671.01855a64.73864,64.73864,0,0,1-21.29981,14.85059A64.02281,64.02281,0,0,1,2850.55762,690.81836ZM2818.458,645.51855a24.892,24.892,0,0,0,10.0498,20.7002q10.04736,7.8047,26.54981,7.7998a59.6398,59.6398,0,0,0,22.65039-4.20019,63.0822,63.0822,0,0,0,19.34961-12.59961v-28.2002a75.8023,75.8023,0,0,0-19.2002-7.95019,89.22624,89.22624,0,0,0-22.19922-2.54981q-16.80468,0-27,7.35059Q2818.45558,633.22265,2818.458,645.51855Z" transform="translate(-111 -54)"/>
      <path d="M3014.35254,691.11914q-18.89941,0-28.64942-9.15039-9.75293-9.14794-9.75-26.55078V559.71875h-30.30078v-18h30.30078v-40.2002l21.89942-5.10009v45.30029h42v18h-42v90q0,11.6997,4.95019,16.7998,4.94972,5.105,16.34961,5.10059a52.34472,52.34472,0,0,0,10.2002-.90039,79.80355,79.80355,0,0,0,10.5-3v19.5a64.69643,64.69643,0,0,1-12.59961,3A95.518,95.518,0,0,1,3014.35254,691.11914Z" transform="translate(-111 -54)"/>
      <path d="M3082.751,505.41846a15.30843,15.30843,0,0,1-11.25-4.64991,15.21894,15.21894,0,0,1,0-21.8999,15.93411,15.93411,0,0,1,22.5,0,15.21674,15.21674,0,0,1,0,21.8999A15.32092,15.32092,0,0,1,3082.751,505.41846Zm-11.09961,182.70068V541.71875h21.89941V688.11914Z" transform="translate(-111 -54)"/>
      <path d="M3203.3457,690.51855q-20.40381,0-36.59961-9.89941a70.46315,70.46315,0,0,1-25.5-27q-9.30321-17.10059-9.2998-38.70117,0-21.59913,9.2998-38.69922a70.45625,70.45625,0,0,1,25.5-27q16.19972-9.90015,36.59961-9.8999a67.47272,67.47272,0,0,1,36.15039,9.8999,70.89479,70.89479,0,0,1,25.34961,27q9.2959,17.09985,9.29981,38.69922,0,21.60059-9.29981,38.70117a70.90181,70.90181,0,0,1-25.34961,27A67.47668,67.47668,0,0,1,3203.3457,690.51855Zm-.2998-19.20019a45.11032,45.11032,0,0,0,25.5-7.34961,51.12089,51.12089,0,0,0,17.5498-20.25,67.8557,67.8557,0,0,0,0-57.75,51.41332,51.41332,0,0,0-17.5498-20.1001,47.90914,47.90914,0,0,0-51,0,51.33605,51.33605,0,0,0-17.54981,20.1001q-6.45557,12.75439-6.45019,28.94922a63.43366,63.43366,0,0,0,6.45019,28.80078,51.045,51.045,0,0,0,17.54981,20.25A45.09911,45.09911,0,0,0,3203.0459,671.31836Z" transform="translate(-111 -54)"/>
      <path d="M3312.542,688.11914V541.71875h21.90039v23.69971q8.395-13.19751,20.09961-19.64991a53.776,53.776,0,0,1,26.40039-6.4497q15.89649,0,27.75,6.75a48.30146,48.30146,0,0,1,18.59961,18.8999q6.75,12.15015,6.75,28.3501v94.80029H3412.1416V599.61865q0-19.49779-10.64941-30.75-10.65235-11.25-28.65039-11.25a43.13023,43.13023,0,0,0-21.89942,5.7002,45.88867,45.88867,0,0,0-16.5,16.7998V688.11914Z" transform="translate(-111 -54)"/>
    </g>
    <g>
      <path d="M887.7002,1031.05078v-210h23.0996v189.59961h118.5v20.40039Z" transform="translate(-111 -54)"/>
      <path d="M1076.39844,848.35059a15.30987,15.30987,0,0,1-11.25-4.64942,15.21843,15.21843,0,0,1,0-21.90039,15.93292,15.93292,0,0,1,22.5,0,15.21731,15.21731,0,0,1,0,21.90039A15.32393,15.32393,0,0,1,1076.39844,848.35059Zm-11.09961,182.70019V884.65039h21.8999v146.40039Z" transform="translate(-111 -54)"/>
      <path d="M1132.19385,1031.05078V884.65039h21.8999v23.7002q8.39576-13.19679,20.1001-19.64942a53.77037,53.77037,0,0,1,26.3999-6.45019q15.89794,0,27.75,6.75a48.30463,48.30463,0,0,1,18.6001,18.89941q6.75,12.15089,6.75,28.35059v94.7998H1231.794v-88.5q0-19.49707-10.64991-30.75-10.65234-11.25-28.65039-11.25a43.132,43.132,0,0,0-21.8999,5.7002,45.90346,45.90346,0,0,0-16.5,16.7998v108Z" transform="translate(-111 -54)"/>
      <path d="M1348.49316,1033.45117q-15.60277,0-27.60009-6.90039a48.73107,48.73107,0,0,1-18.75-19.20019q-6.75-12.29738-6.75-28.2002v-94.5h22.1997v88.2002q0,19.50439,10.5,30.90039,10.49781,11.40381,28.5,11.39941a42.872,42.872,0,0,0,22.0503-5.69922,47.00876,47.00876,0,0,0,16.35009-16.5V884.65039h21.89991v146.40039h-21.89991v-23.70019q-8.40234,12.90234-19.95019,19.5Q1363.49048,1033.44678,1348.49316,1033.45117Z" transform="translate(-111 -54)"/>
      <path d="M1443.28906,1031.05078l56.1001-75.90039-52.7998-70.5h26.0996l40.5,55.80078,40.2002-55.80078h24.8999L1525.189,955.751l56.4004,75.2998h-26.1001l-43.8003-59.70019-43.5,59.70019Z" transform="translate(-111 -54)"/>
      <path d="M1682.085,1031.05078v-210h143.39942v20.40039H1705.18457v73.5H1788.585v20.09961h-83.40039v75.59961h121.5v20.40039Z" transform="translate(-111 -54)"/>
      <path d="M1918.48438,1033.15039a60.91674,60.91674,0,0,1-34.2002-10.0498,72.07378,72.07378,0,0,1-24.2998-27q-9-16.94532-9-37.9502,0-21.29736,9.14941-38.25a72.425,72.425,0,0,1,24.75-27,62.906,62.906,0,0,1,34.7998-10.0498,60.88709,60.88709,0,0,1,25.2002,5.25,59.21041,59.21041,0,0,1,20.40039,15.15039V814.45117l21.89941-4.5v221.09961h-21.89941v-19.5a55.83154,55.83154,0,0,1-20.40039,16.04981A62.153,62.153,0,0,1,1918.48438,1033.15039Zm5.39941-19.19922a54.76075,54.76075,0,0,0,23.70019-5.10058,46.22849,46.22849,0,0,0,17.7002-14.39942V921.85059a49.89578,49.89578,0,0,0-18.15039-14.54981,53.15733,53.15733,0,0,0-23.25-5.25,48.57874,48.57874,0,0,0-26.25,7.2002,51.42626,51.42626,0,0,0-18.29981,19.7998q-6.75,12.60059-6.75,28.79981a60.26474,60.26474,0,0,0,6.75,28.65039,52.26736,52.26736,0,0,0,18.29981,20.09961A47.806,47.806,0,0,0,1923.88379,1013.95117Z" transform="translate(-111 -54)"/>
      <path d="M2042.97949,848.35059a15.30987,15.30987,0,0,1-11.25-4.64942,15.21954,15.21954,0,0,1,0-21.90039,15.93292,15.93292,0,0,1,22.5,0,15.21731,15.21731,0,0,1,0,21.90039A15.32236,15.32236,0,0,1,2042.97949,848.35059Zm-11.09961,182.70019V884.65039h21.89942v146.40039Z" transform="translate(-111 -54)"/>
      <path d="M2154.5752,1034.05078q-18.89942,0-28.64942-9.15039-9.75292-9.14649-9.75-26.5498v-95.7002H2085.875v-18h30.30078V844.45117l21.89942-5.10058v45.2998h42v18h-42v90q0,11.70117,4.95019,16.80078,4.94972,5.10352,16.34961,5.09961a52.26867,52.26867,0,0,0,10.2002-.90039,79.6537,79.6537,0,0,0,10.5-3v19.5a64.62569,64.62569,0,0,1-12.59961,3A95.35873,95.35873,0,0,1,2154.5752,1034.05078Z" transform="translate(-111 -54)"/>
      <path d="M2222.97266,848.35059a15.30987,15.30987,0,0,1-11.25-4.64942,15.21952,15.21952,0,0,1,0-21.90039,15.93292,15.93292,0,0,1,22.5,0,15.21731,15.21731,0,0,1,0,21.90039A15.32236,15.32236,0,0,1,2222.97266,848.35059Zm-11.09961,182.70019V884.65039h21.89941v146.40039Z" transform="translate(-111 -54)"/>
      <path d="M2343.56836,1033.45117q-20.40381,0-36.59961-9.90039a70.44936,70.44936,0,0,1-25.5-27q-9.30323-17.10059-9.2998-38.70019,0-21.59913,9.2998-38.7002a70.46315,70.46315,0,0,1,25.5-27q16.1997-9.89941,36.59961-9.89941a67.4767,67.4767,0,0,1,36.15039,9.89941,70.90181,70.90181,0,0,1,25.34961,27q9.29589,17.10059,9.2998,38.7002,0,21.60059-9.2998,38.70019a70.88778,70.88778,0,0,1-25.34961,27A67.47743,67.47743,0,0,1,2343.56836,1033.45117Zm-.29981-19.20019a45.10338,45.10338,0,0,0,25.5-7.35059,51.12091,51.12091,0,0,0,17.54981-20.25,67.85579,67.85579,0,0,0,0-57.75,51.41529,51.41529,0,0,0-17.54981-20.09961,47.91185,47.91185,0,0,0-51,0,51.338,51.338,0,0,0-17.5498,20.09961q-6.45557,12.75587-6.4502,28.9502a63.42659,63.42659,0,0,0,6.4502,28.7998,51.045,51.045,0,0,0,17.5498,20.25A45.09224,45.09224,0,0,0,2343.26855,1014.251Z" transform="translate(-111 -54)"/>
      <path d="M2452.76367,1031.05078V884.65039h21.90039v23.7002q8.395-13.19679,20.09961-19.64942a53.771,53.771,0,0,1,26.40039-6.45019q15.89649,0,27.75,6.75a48.30342,48.30342,0,0,1,18.59961,18.89941q6.75,12.15089,6.75,28.35059v94.7998h-21.90039v-88.5q0-19.49707-10.64941-30.75-10.65236-11.25-28.65039-11.25a43.13023,43.13023,0,0,0-21.89942,5.7002,45.8961,45.8961,0,0,0-16.5,16.7998v108Z" transform="translate(-111 -54)"/>
    </g>
  </g>
  <g id="Capa_2" data-name="Capa 2">
    <g>
      <path class="cls-1" d="M777.66106,487.86941a18.42428,18.42428,0,0,1-.95562,4.16611,10.54872,10.54872,0,0,1-.87949,1.94517,5.17365,5.17365,0,0,1-3.566,2.50841,6.88515,6.88515,0,0,1-3.1794.03347,4.71772,4.71772,0,0,1-2.75248-1.90329,12.83992,12.83992,0,0,1-1.34109-2.67338c-1.23446-3.04323-2.44713-6.09664-3.75411-9.10889a370.52365,370.52365,0,0,0-32.5715-59.75474,339.19808,339.19808,0,0,0-50.667-59.17991,387.19782,387.19782,0,0,0-46.71375-36.95669c-2.01221-1.361-4.06654-2.66016-6.071-4.03219a31.02738,31.02738,0,0,0-6.54658-3.13511.19267.19267,0,0,0-.16609.0373.27039.27039,0,0,0-.09441.18666,6.12092,6.12092,0,0,0,.14529.83274c1.724,6.26494,3.46447,12.52538,5.17855,18.793,2.09138,7.64745,4.03422,15.333,5.64739,23.09629,1.0317,4.96514,1.99774,9.94484,2.76323,14.96039.65749,4.308,1.3557,8.61026,1.97008,12.92443.40286,2.82914.6971,5.67394,1.02446,8.51356.37656,3.26574.76051,6.531,1.09452,9.80123.23237,2.27521.414,4.55654.56843,6.83853.24615,3.63755.45437,7.27769.67065,10.9172q.08268,1.39169.11673,2.78608c.17663,7.43479.21189,14.87.15069,22.30708-.05826,7.08068-.35492,14.15325-.63507,21.22571-.16971,4.28467-.48224,8.56612-.83506,12.8404-.27612,3.3462-.69465,6.6813-1.08352,10.01744-.31437,2.69683-.64466,5.39276-1.03049,8.0801-.40616,2.82846-.8446,5.65368-1.34575,8.46668-.6138,3.44531-1.29561,6.87878-1.96883,10.31325-1.3054,6.65992-2.85445,13.2649-4.57335,19.829-1.031,3.937-2.13308,7.85554-3.21759,11.77841-.20895.75572-.46961,1.49838-.73468,2.23692a13.45294,13.45294,0,0,1-.58948,1.377c-1.56094,3.18135-5.03783,3.71921-7.70324,2.62432a5.72762,5.72762,0,0,1-2.54013-2.23492,11.93389,11.93389,0,0,1-1.32191-2.68546q-.85791-2.42286-1.67966-4.85835c-3.066-9.13879-6.081-18.295-9.19716-27.41653a437.02325,437.02325,0,0,0-18.88986-45.94271A506.60178,506.60178,0,0,0,525.35045,387.181c-7.63517-10.01652-15.79573-19.59228-24.34036-28.8421-10.43985-11.30145-21.39623-22.08338-32.75675-32.456a303.106,303.106,0,0,0-26.33686-21.30009c-10.818-7.85852-22.03386-15.11453-33.44151-22.08057q-22.68146-13.85045-46.44169-25.75618a529.13,529.13,0,0,0-64.70039-27.1088c-9.31636-3.187-18.73947-6.03666-28.22008-8.69509-6.25222-1.7532-12.52158-3.444-18.83027-4.98194q-7.17666-1.74963-14.40921-3.26044c-4.19542-.87437-8.40755-1.654-12.62755-2.388-2.46161-.42814-4.94934-.71381-7.43112-1.01606-2.12816-.2592-4.2602-.52118-6.39847-.65376-2.42525-.15035-4.859-.1809-7.2897-.22228a75.09435,75.09435,0,0,0-25.0836,3.86541,34.17076,34.17076,0,0,0-18.59839,15.0465,49.60175,49.60175,0,0,0-4.50348,9.93179c-.29584.87972-.56867,1.76762-.88492,2.63985a11.95657,11.95657,0,0,1-1.331,2.68112,8.0254,8.0254,0,0,1-4.78563,3.378,4.7885,4.7885,0,0,1-3.52081-.43217,8.4654,8.4654,0,0,1-1.58659-1.081,13.82847,13.82847,0,0,1-1.51068-1.51914,146.87969,146.87969,0,0,1-16.38655-22.76493,95.50277,95.50277,0,0,1-8.79994-20.18405,77.71591,77.71591,0,0,1-2.93443-14.24933q-.19764-1.91865-.3916-3.8377c-.57372-3.42332-.32747-6.87666-.37819-10.31628.0033-11.55712,4.52514-21.42223,11.67011-30.17189a73.12861,73.12861,0,0,1,30.25362-21.87934,102.47868,102.47868,0,0,1,28.769-6.49957c9.68222-.86971,19.38885-1.02357,29.09176-1.40683,5.795-.22889,11.37972.579,17.03656,1.23464a17.71288,17.71288,0,0,0,4.91293.04556c2.14276-.349,2.61069-.98267,2.62432-3.14826.022-3.49452-.31719-6.99429.35371-10.47707A29.07276,29.07276,0,0,1,247.496,81.16921c6.49468-4.9589,13.95438-8.09461,21.5142-10.9773,18.60713-7.09521,37.893-11.36556,57.61992-13.86173a236.39047,236.39047,0,0,1,29.03137-2.10872q1.0881.00018,2.1756,0,1.2935.00021,2.58632,0,1.86372.00027,3.7266-.0001,1.46778.00035,2.93571-.00006c1.04962-.12147,2.13476.2558,3.16012-.22133h5.15058c1.00935.4698,2.07783.11044,3.11338.22155q1.447.00012,2.89322-.0001,1.287.00026,2.57319,0,1.46648.00027,2.93217-.00006,1.59071.00029,3.18121-.00017c17.27689-.03309,34.34364,2.109,51.33883,4.99276A481.87874,481.87874,0,0,1,504.70127,74.8181a516.06371,516.06371,0,0,1,59.45449,22.79338c15.89793,7.22553,31.26725,15.476,46.37282,24.22648,11.57644,6.706,22.94314,13.74871,34.03483,21.22769A615.02683,615.02683,0,0,1,698.166,183.80671c10.80074,9.1474,21.39908,18.51235,31.66954,28.2554,6.74085,6.39467,13.56889,12.70168,20.08487,19.32341,6.61668,6.724,12.96179,13.70825,18.88645,21.06063,2.29435,2.84718,2.58168,5.42557.88546,7.84934a6.665,6.665,0,0,1-8.20292,2.31179c-4.64219-1.77486-8.77014-4.53542-12.90285-7.205a504.01754,504.01754,0,0,0-50.73664-29.17953c-12.25411-6.03284-24.59854-11.87249-36.9511-17.69723a3.8247,3.8247,0,0,0-1.92109-.54425c10.53918,9.546,21.11111,18.92372,30.984,29.05034a318.499,318.499,0,0,1,31.64753,38.04624,301.8044,301.8044,0,0,1,25.95928,43.89364,308.91831,308.91831,0,0,1,22.9008,65.91372,371.60617,371.60617,0,0,1,6.68553,41.89873,125.8727,125.8727,0,0,1,.62318,16.05075q.00054,2.86347.00026,5.7218.00032,14.26777.00047,28.52922c0,.75333,0,1.50909-.0001,2.2631.09221.679-.21351,1.40268.22131,2.04645v5.57845C777.71366,487.2067,777.83543,487.59407,777.66106,487.86941Z" transform="translate(-111 -54)"/>
      <path class="cls-2" d="M777.65378,477.49318c-.03-1.572-.08341-3.144-.08577-4.716q-.01761-11.58087-.009-23.16176c.00015-.42663.055-.85322.0844-1.27985q.19185-.25866.3566.018v29.1796C777.85906,477.74024,777.74484,477.71656,777.65378,477.49318Z" transform="translate(-111 -54)"/>
      <path class="cls-3" d="M111.37388,172.82746c.02468-.26519.055-.53.07261-.79566a1.28274,1.28274,0,0,1,.34745-.90533,10.04036,10.04036,0,0,1,.07954,1.25834,78.92338,78.92338,0,0,0,.00893,8.25016,11.56041,11.56041,0,0,1-.07352,1.25917,1.37465,1.37465,0,0,1-.34655-.91643c-.02634-.40141-.06012-.80232-.09068-1.20345-.36754-.53559.104-1.24819-.37166-1.761v-3.4329C111.47618,174.071,111.00208,173.35907,111.37388,172.82746Z" transform="translate(-111 -54)"/>
      <path class="cls-4" d="M778,448.35363l-.17772-.02016-.17888.00214a51.23249,51.23249,0,0,1,.00283-6.0151.49.49,0,0,1,.35377.02556Z" transform="translate(-111 -54)"/>
      <path class="cls-5" d="M364.19977,54.35543a23.11825,23.11825,0,0,1-3.84908.00943q-.18261-.13371-.11147-.25132c.04556-.07561.0903-.11354.13465-.11354h3.86294q.21958.14263.13.25312A.22446.22446,0,0,1,364.19977,54.35543Z" transform="translate(-111 -54)"/>
      <path class="cls-6" d="M390.41892,54q.00095.18126.01912.3616a17.55415,17.55415,0,0,1-3.43246-.00418q-.229-.10647-.16179-.22988c.04589-.0849.09281-.12754.14141-.12754Z" transform="translate(-111 -54)"/>
      <path class="cls-7" d="M364.19977,54.35543q.02471-.17707.037-.35543h3.0045q.2159.15068.12981.2771c-.05428.08007-.108.12029-.16177.12029Z" transform="translate(-111 -54)"/>
      <path class="cls-8" d="M367.20935,54.39739a1.91927,1.91927,0,0,0,.032-.39739h3.00451a1.095,1.095,0,0,1-.92146.42173C368.61934,54.41759,367.91435,54.40593,367.20935,54.39739Z" transform="translate(-111 -54)"/>
      <path class="cls-8" d="M378.43291,54.39569c-.7052.00911-1.41037.02158-2.1156.026A1.08566,1.08566,0,0,1,375.3964,54h3.0045q.19891.11667.14691.25367Q378.494,54.39563,378.43291,54.39569Z" transform="translate(-111 -54)"/>
      <path class="cls-9" d="M378.43291,54.39569A2.03043,2.03043,0,0,1,378.4009,54h3.00451q.1987.111.1428.23805c-.0382.08727-.07791.131-.11959.131Z" transform="translate(-111 -54)"/>
      <path class="cls-10" d="M386.9852,54q.00687.17891.02038.35742a13.43789,13.43789,0,0,1-3.00094.00026q-.23244-.10421-.1657-.22848c.04585-.086.09287-.1292.14175-.1292Z" transform="translate(-111 -54)"/>
      <path class="cls-11" d="M360.37387,54a2.49172,2.49172,0,0,1-.02318.36487l-2.56649-.00854q-.19164-.12669-.12142-.24287.06817-.11333.1358-.11346Z" transform="translate(-111 -54)"/>
      <path class="cls-12" d="M383.98069,54q.00523.17932.024.35771-1.28808.0058-2.57608.0115A3.03187,3.03187,0,0,1,381.40541,54Z" transform="translate(-111 -54)"/>
      <path class="cls-13" d="M357.79858,54q.00118.17875-.01433.35659-1.0719.00078-2.14374.002.01356-.1791.012-.35861Z" transform="translate(-111 -54)"/>
      <path class="cls-14" d="M777.65373,477.49318a1.02121,1.02121,0,0,1,.34627.04005v2.14556c-.14424.19425-.27041.19362-.37551-.03479Z" transform="translate(-111 -54)"/>
      <path class="cls-15" d="M111.37388,172.82746c.00487.3495.01629.69907.01259,1.04847a.85373.85373,0,0,1-.38647.70445v-1.71644A3.053,3.053,0,0,1,111.37388,172.82746Z" transform="translate(-111 -54)"/>
      <path class="cls-16" d="M111,178.01328a1.05968,1.05968,0,0,1,.40393.92114c-.00292.27985-.02051.55954-.03192.83958a2.83936,2.83936,0,0,1-.372-.04428Z" transform="translate(-111 -54)"/>
      <path class="cls-17" d="M777.62449,479.644q.18729.02263.37551.03479v1.71644a1.04732,1.04732,0,0,1-.41475-.914C777.58975,480.202,777.61076,479.92309,777.62449,479.644Z" transform="translate(-111 -54)"/>
      <path class="cls-18" d="M428.18983,647.46145H426.473a.40491.40491,0,0,1,.05868-.58652,1.46869,1.46869,0,0,1,1.59845-.002A.407.407,0,0,1,428.18983,647.46145Z" transform="translate(-111 -54)"/>
      <path class="cls-19" d="M777.66106,487.86941c-.10521-.3811-.08189-.71357.33894-.89573v.85823l-.16289.07812Z" transform="translate(-111 -54)"/>
      <path class="cls-20" d="M426.43706,647.07686q.01682.19244.03591.38459h-.85843l.01014-.46368A.58432.58432,0,0,1,426.43706,647.07686Z" transform="translate(-111 -54)"/>
      <path class="cls-21" d="M428.18983,647.46145a2.96178,2.96178,0,0,0,.04614-.37338.54816.54816,0,0,1,.82576-.03357,2.0115,2.0115,0,0,1-.01347.407Z" transform="translate(-111 -54)"/>
      <path class="cls-1" d="M411.06336,469.54115a67.93918,67.93918,0,0,1-.28822,7.34335,8.97512,8.97512,0,0,0,.01134,1.49791,99.31407,99.31407,0,0,1-.03206,10.07884c-.028.4998-.053,1-.06681,1.50032-.10041,3.64821-.44286,7.27538-.86118,10.9001a138.87985,138.87985,0,0,1-2.98215,16.65542,134.9261,134.9261,0,0,1-12.78518,33.08162,153.52824,153.52824,0,0,1-48.21569,53.52749,198.52757,198.52757,0,0,1-31.377,17.53193,167.2323,167.2323,0,0,1-19.55679,7.54512c-3.13841.96446-6.28666,1.888-9.50654,2.55822a14.34877,14.34877,0,0,1-3.41122.25448,6.17141,6.17141,0,0,1-4.38282-1.96265,9.066,9.066,0,0,1-1.04791-1.35218,5.33782,5.33782,0,0,1-.47362-4.92494,9.206,9.206,0,0,1,1.21193-2.25948q.68177-.96158,1.429-1.87653a242.21821,242.21821,0,0,0,17.85307-25.1737A299.24454,299.24454,0,0,0,321.5351,544.974a294.9839,294.9839,0,0,0,12.30578-39.43977c1.20111-5.07648,2.29322-10.1749,3.224-15.30565.5737-3.16252,1.02722-6.348,1.4802-9.53089.41279-2.90056.79333-5.80705,1.11068-8.71937.2555-2.34445.37525-4.70333.59088-7.05253.41876-4.56219.45557-9.14036.60717-13.71376.03314-1.00028.05685-2.0024.03555-3.00266-.11713-5.50446-.15441-11.01154-.56259-16.5066-.21709-2.92325-.36854-5.85155-.6025-8.7733-.1711-2.137-.42092-4.26791-.65-6.4-.1527-1.42117-.33535-2.83912-.49659-4.25942-.65312-5.75375-1.56966-11.46643-2.59748-17.1645a278.07646,278.07646,0,0,0-10.13491-39.38985A322.15645,322.15645,0,0,0,310.8173,319.065a348.132,348.132,0,0,0-32.54774-54.37315c-2.18806-3.00407-4.51323-5.909-6.80008-8.84024-2.46314-3.15719-4.92718-6.313-7.15293-9.64513-.51547-.77171-.99108-1.5708-1.46564-2.36881a7.6974,7.6974,0,0,1-.90831-2.39268,5.23322,5.23322,0,0,1,2.5744-5.63615,3.08981,3.08981,0,0,1,.99976-.3395,5.71189,5.71189,0,0,1,2.94809.32407,63.3944,63.3944,0,0,1,5.88192,2.56874,72.54638,72.54638,0,0,1,9.32473,5.6813c2.62923,1.85757,5.17,3.83139,7.66045,5.8694,4.9254,4.03057,9.86542,8.0438,14.75708,12.115a270.96464,270.96464,0,0,1,27.40612,26.24667,344.33955,344.33955,0,0,1,26.65442,33.03589,272.0253,272.0253,0,0,1,26.59053,46.67474,249.63088,249.63088,0,0,1,14.048,41.10136c1.57665,6.37968,3.132,12.764,4.53083,19.18412,1.1861,5.44365,2.2844,10.90613,3.23336,16.399q.83979,4.86087,1.49154,9.74634c.29585,2.19436.4043,4.41328.653,6.61483A82.06906,82.06906,0,0,1,411.06336,469.54115Z" transform="translate(-111 -54)"/>
      <path class="cls-1" d="M429.06173,647.0545q-.41289.01673-.82579.03357-.8994-.00566-1.79886-.01121-.40615-.03951-.81232-.07909c-.3315-.1287-.66253-.25851-.99439-.38606a7.075,7.075,0,0,1-4.25126-4.255,4.79621,4.79621,0,0,1-.14178-2.94779,12.21179,12.21179,0,0,1,1.7085-3.67594c1.4807-2.27851,2.81031-4.645,4.132-7.01639a271.15835,271.15835,0,0,0,20.99118-48.48014q3.837-11.82322,6.69564-23.92088c.91649-3.89317,1.68757-7.81714,2.37444-11.759.589-3.37983,1.069-6.77469,1.53568-10.1716.25277-1.83991.41517-3.69281.59381-5.5422.2337-2.41873.44375-4.83966.66229-7.2598.03215-.356.06183-.71245.08108-1.06933.33535-6.2119.56083-12.42543.54241-18.64933-.01653-5.58013-.24363-11.152-.56709-16.718q-.36673-6.3117-1.05766-12.605c-.42266-3.83678-.89481-7.66636-1.48281-11.47858-1.15451-7.48512-2.61962-14.91181-4.44011-22.2658A286.77838,286.77838,0,0,0,412.41928,349.306c-.43286-.65624-.90014-1.29278-1.28975-1.97375a15.69263,15.69263,0,0,1-1.14563-2.29445,5.053,5.053,0,0,1,.79907-5.24151,8.7162,8.7162,0,0,1,1.36776-1.35187,6.073,6.073,0,0,1,6.25985-.86822,9.22094,9.22094,0,0,1,1.70543.883c2.70251,1.74052,5.40975,3.475,8.07542,5.27089a67.40412,67.40412,0,0,1,6.27947,4.8438c8.0252,6.90554,15.83526,14.04432,23.299,21.55558a279.17538,279.17538,0,0,1,26.50274,30.62913,210.095,210.095,0,0,1,31.9423,62.95006,248.27335,248.27335,0,0,1,6.50966,25.51677c.77911,3.92418,1.51129,7.85476,2.10571,11.81131.49882,3.32027,1.047,6.63326,1.5246,9.95652.254,1.76742.37037,3.55421.60942,5.32414.35487,2.62752.40255,5.27328.55614,7.91321a48.37224,48.37224,0,0,1-.00637,5.35866c-.06753,1.28362-.09533,2.57221-.0701,3.85724.07307,3.71921.04118,7.438-.17209,11.14994-.13929,2.42386-.40226,4.84065-.69323,7.25493a106.14684,106.14684,0,0,1-12.18895,38.136,102.00506,102.00506,0,0,1-21.96431,27.78551,111.88848,111.88848,0,0,1-20.86953,14.5746,132.16551,132.16551,0,0,1-32.0365,12.42989c-2.97975.72659-6.00744,1.25622-9.01095,1.88663C430.02036,646.7665,429.54365,646.923,429.06173,647.0545Z" transform="translate(-111 -54)"/>
    </g>
  </g>
</svg>
